<?xml version="1.0" encoding="utf-8"?>
<!-- Svg Vector Icons : http://www.onlinewebfonts.com/icon -->
<!DOCTYPE svg PUBLIC "-//W3C//DTD SVG 1.1//EN" "http://www.w3.org/Graphics/SVG/1.1/DTD/svg11.dtd">
<svg version="1.1" xmlns="http://www.w3.org/2000/svg" xmlns:xlink="http://www.w3.org/1999/xlink" x="0px" y="0px" viewBox="0 0 1000 1000" enable-background="new 0 0 1000 1000" xml:space="preserve">
<metadata> Svg Vector Icons : http://www.onlinewebfonts.com/icon </metadata>
<g><g transform="translate(0.000000,511.000000) scale(0.100000,-0.100000)"><path d="M4581.1,4996.5c-1510-172.6-2779.3-1205.7-3258.4-2649.8C1107,1695,1082.1,918.4,1254.6,259.9c258.9-994.6,890.1-2064,1936.9-3278.8C3607-3500.3,4921.7-4790,4998.9-4790c38.6,0,726.6,642.6,1158,1080.8C7937.1-1892.7,8859-235.1,8859,1159.1c0,1280.6-644.9,2488.6-1714.3,3203.9c-422.3,283.8-949.1,497.3-1448.7,588.1C5403.1,5005.6,4851.3,5026,4581.1,4996.5z M5577.9,4011c663-147.6,1244.3-495,1655.3-992.3c290.6-354.2,479.1-726.6,597.2-1178.5c79.5-302,97.6-831.1,40.9-1124C7696.4-176,7085.6-1243.3,6070.7-2417.2C5711.9-2835,5044.3-3518.4,4998.9-3518.4c-18.2,0-193,161.2-388.3,361C3216.5-1731.5,2326.4-350.9,2128.8,702.7c-45.4,238.4-47.7,685.7-2.3,940c70.4,406.5,220.3,778.8,454.1,1128.5c442.8,665.3,1167.1,1128.5,1975.5,1262.5C4785.5,4072.3,5357.7,4058.7,5577.9,4011z"/><path d="M3802.3,2119.6L2617,1170.4l465.5-6.8l463.2-4.5V432.5v-726.6h476.8h476.8v488.2v488.2h499.5h499.6V194.1v-488.2h476.8h476.8v726.6v726.6l465.5,4.5l465.5,6.8l-1178.5,942.3c-647.1,517.7-1187.5,944.6-1198.9,946.9C4994.4,3064.2,4451.7,2639.6,3802.3,2119.6z"/></g></g>
</svg>